# xmcd
#
# Track frame offsets: 
#        150
#        24141
#        60950
#        96211
#        123398
#        152332
#        196961
#        213680
#        237450
#        266750
#        293342
#
# Disc length: 4487 seconds
#
# Revision: 0
# Processed by: cddbd v1.5.2PL0 Copyright (c) Steve Scherf et al.
# Submitted via: ExactAudioCopy v1.0b3
#
DISCID=8e11850b
DTITLE=Droga Ewakuacyjna - Mektub
DYEAR=2017
DGENRE=Blues
TTITLE0=Hidden Freedom
TTITLE1=Na Slipingu
TTITLE2=Teraz Nie Mogę
TTITLE3=Długa Droga
TTITLE4=Around The Blues
TTITLE5=Cisza
TTITLE6=Cry Baby
TTITLE7=Czegoś Brak
TTITLE8=Stormy Monday
TTITLE9=Midnight Special
TTITLE10=Change On My Mind
EXTD=
EXTT0=
EXTT1=
EXTT2=
EXTT3=
EXTT4=
EXTT5=
EXTT6=
EXTT7=
EXTT8=
EXTT9=
EXTT10=
PLAYORDER=
